# xmcd CD database file
#
# Track frame offsets:
#	150
#	23373
#	48139
#	70030
#	110501
#	118880
#	139107
#	143304
#	166742
#	174370
#	190781
#	209898
#
# Disc length: 3155 seconds
#
# Revision: 0
# Processed by: cddbd v1.5.1PL0 Copyright (c) Steve Scherf et al.
# Submitted via: CDex 1.51
#
DISCID=9c0c510c
DTITLE=Mats Eilertsen - Turanga
DYEAR=1900
DGENRE=Jazz
TTITLE0=Rica
TTITLE1=Oasis
TTITLE2=Ambush
TTITLE3=Sweet Snowflakes
TTITLE4=Gamelange
TTITLE5=Sukha
TTITLE6=Monsoon
TTITLE7=Visby
TTITLE8=Impal
TTITLE9=The Trade
TTITLE10=Turanga
TTITLE11=Solitude
EXTD=
EXTT0=
EXTT1=
EXTT2=
EXTT3=
EXTT4=
EXTT5=
EXTT6=
EXTT7=
EXTT8=
EXTT9=
EXTT10=
EXTT11=
PLAYORDER=
